<svg width="18" height="18" viewBox="0 0 18 18" fill="none" xmlns="http://www.w3.org/2000/svg">
<g clip-path="url(#clip0)">
<path d="M11.2499 9.7507C10.8352 9.7507 10.4999 10.0867 10.4999 10.5006V13.5007C10.4999 13.9139 10.1639 14.2507 9.74985 14.2507H7.49988V3.00078C7.49988 2.36028 7.09188 1.78804 6.47843 1.57504L6.25637 1.50075H9.74985C10.1639 1.50075 10.4999 1.83747 10.4999 2.25083V4.50081C10.4999 4.91471 10.8352 5.25075 11.2499 5.25075C11.6646 5.25075 11.9998 4.91471 11.9998 4.50081V2.25083C11.9998 1.01035 10.9903 0.000854492 9.74985 0.000854492H1.68748C1.65892 0.000854492 1.63502 0.013626 1.60728 0.0173338C1.57117 0.0143126 1.5367 0.000854492 1.50003 0.000854492C0.672768 0.000854492 0 0.673485 0 1.50075V15.0006C0 15.6411 0.408 16.2133 1.02144 16.4263L5.53499 17.9309C5.68797 17.9781 5.84013 18.0007 5.99998 18.0007C6.82724 18.0007 7.49988 17.3279 7.49988 16.5006V15.7507H9.74985C10.9903 15.7507 11.9998 14.7412 11.9998 13.5007V10.5006C11.9998 10.0867 11.6646 9.7507 11.2499 9.7507Z" fill="white"/>
<path d="M17.7801 6.96988L14.78 3.96995C14.5657 3.75545 14.2431 3.6909 13.9626 3.80708C13.6829 3.9234 13.4999 4.19709 13.4999 4.50017V6.75015H10.4999C10.0859 6.75015 9.74985 7.08606 9.74985 7.5001C9.74985 7.91414 10.0859 8.25005 10.4999 8.25005H13.4999V10.5C13.4999 10.8031 13.6829 11.0768 13.9626 11.1931C14.2431 11.3093 14.5657 11.2448 14.78 11.0304L17.7801 8.03032C18.0733 7.73713 18.0733 7.26307 17.7801 6.96988Z" fill="white"/>
</g>
<defs>
<clipPath id="clip0">
<rect width="18" height="18" fill="white"/>
</clipPath>
</defs>
</svg>
